<svg xmlns="http://www.w3.org/2000/svg" width="107.718" height="177.336"><g data-name="Group 18"><path data-name="Path 1" d="M69.289 96.135a6.163 6.163 0 106.161 6.164 6.17 6.17 0 00-6.161-6.164z" fill="#003b87"/><path data-name="Path 2" d="M0 0v47.354L20.834 26.9l80.391 44.027H71.789V83.98H69.03V70.927h-9.046v-2.759h30.462L21.305 30.304 0 51.22v126.116h89.469a18.249 18.249 0 0018.249-18.247V0zm34.252 101.18h13.3V67.341h2.759v51.027h-2.759v-14.43h-13.3zM21.231 49.654h2.758v55.59h-2.758zm51.566 79.076H20.25v-2.759h52.547zm-3.507-17.51a8.922 8.922 0 118.92-8.921 8.931 8.931 0 01-8.921 8.921z" fill="#003b87"/><path data-name="Path 3" d="M90.446 68.168H59.984v2.759h9.046v13.05h2.758v-13.05h29.437L20.833 26.9.005 47.354v3.866l21.3-20.916z" fill="#658ec0"/><path data-name="Rectangle 2" fill="#658ec0" d="M21.231 49.654h2.759v55.589h-2.759z"/><path data-name="Rectangle 3" fill="#658ec0" d="M20.25 125.971h52.546v2.759H20.25z"/><path data-name="Path 4" d="M47.552 118.368h2.759V67.341h-2.759v33.839h-13.3v2.758h13.3z" fill="#658ec0"/><path data-name="Path 5" d="M69.29 93.377a8.922 8.922 0 108.92 8.922 8.931 8.931 0 00-8.92-8.922zm0 15.085a6.163 6.163 0 116.161-6.162 6.169 6.169 0 01-6.161 6.162z" fill="#658ec0"/></g><g data-name="Group 19"><path data-name="Path 6" d="M16.588 138.919h1.346v9.408h-1.346v-4.095h-5.286v4.095H9.954v-9.408h1.348v4.067h5.287z" fill="#fff"/><path data-name="Path 7" d="M22.803 142.118a3.24 3.24 0 012.352.912 3.075 3.075 0 01.935 2.294 2.914 2.914 0 01-.949 2.226 3.37 3.37 0 01-2.392.885 3.242 3.242 0 01-2.33-.9 3.175 3.175 0 01.01-4.513 3.3 3.3 0 012.374-.904zm-.066 1.1a1.93 1.93 0 00-1.448.579 2.017 2.017 0 00-.565 1.474 1.938 1.938 0 00.579 1.452 2.048 2.048 0 001.488.561 2.012 2.012 0 001.477-.57 2.1 2.1 0 00-.023-2.918 2.075 2.075 0 00-1.508-.573z" fill="#fff"/><path data-name="Path 8" d="M31.398 148.328v-.794a2.845 2.845 0 01-.892.663 2.32 2.32 0 01-1 .239 2.093 2.093 0 01-1.081-.292 1.91 1.91 0 01-.748-.794 3.989 3.989 0 01-.252-1.668v-3.55h1.221v3.53a2.44 2.44 0 00.279 1.364 1.132 1.132 0 00.981.386 1.79 1.79 0 001.488-.855v-4.425h1.226v6.2z" fill="#fff"/><path data-name="Path 9" d="M34.044 147.883v-1.32a5.531 5.531 0 001.061.588 2.446 2.446 0 00.913.226 1.131 1.131 0 00.659-.188.544.544 0 00.276-.451.615.615 0 00-.178-.45 4.174 4.174 0 00-.771-.514 5.435 5.435 0 01-1.553-1.128 1.621 1.621 0 01-.367-1.018 1.433 1.433 0 01.556-1.165 2.191 2.191 0 011.432-.451 3.945 3.945 0 011.865.512v1.212a3.729 3.729 0 00-1.785-.661.985.985 0 00-.575.153.464.464 0 00-.219.4.58.58 0 00.2.411 3.4 3.4 0 00.7.47l.437.25q1.55.875 1.55 1.939a1.543 1.543 0 01-.6 1.248 2.338 2.338 0 01-1.532.488 3.741 3.741 0 01-.983-.117 6.654 6.654 0 01-1.086-.434z" fill="#fff"/><path data-name="Path 10" d="M44.933 145.337h-4.357a2.024 2.024 0 00.6 1.414 1.965 1.965 0 001.418.525 3.682 3.682 0 002.236-.754v1.2a4.079 4.079 0 01-1.121.538 4.689 4.689 0 01-1.3.161 2.927 2.927 0 01-1.656-.423 3.085 3.085 0 01-1.014-1.142 3.487 3.487 0 01-.379-1.661 3.3 3.3 0 01.8-2.3 2.678 2.678 0 012.08-.884 2.451 2.451 0 011.967.862 3.444 3.444 0 01.734 2.31zm-4.329-.734h3.121a1.7 1.7 0 00-.437-1.132 1.413 1.413 0 00-1.051-.4 1.516 1.516 0 00-1.08.4 1.963 1.963 0 00-.554 1.132z" fill="#fff"/><path data-name="Path 11" d="M53.056 142.118a3.234 3.234 0 012.35.912 3.071 3.071 0 01.937 2.294 2.916 2.916 0 01-.95 2.226 3.367 3.367 0 01-2.39.885 3.237 3.237 0 01-2.33-.9 3.175 3.175 0 01.01-4.513 3.3 3.3 0 012.373-.904zm-.068 1.1a1.934 1.934 0 00-1.448.579 2.022 2.022 0 00-.565 1.474 1.938 1.938 0 00.579 1.452 2.052 2.052 0 001.488.561 2.015 2.015 0 001.479-.57 2.1 2.1 0 00-.023-2.918 2.078 2.078 0 00-1.51-.573z" fill="#fff"/><path data-name="Path 12" d="M57.845 142.132v-.371a3.337 3.337 0 01.636-2.229 1.957 1.957 0 011.525-.734 4.09 4.09 0 01.909.121v1.2a1.618 1.618 0 00-.565-.108 1.158 1.158 0 00-1 .383 2.44 2.44 0 00-.28 1.367v.371h1.1v1.1h-1.104v5.091h-1.221v-5.087h-.89v-1.1z" fill="#fff"/><path data-name="Path 13" d="M66.458 138.906h7.859v1.2h-3.28v8.223h-1.353v-8.224h-3.226z" fill="#fff"/><path data-name="Path 14" d="M75.394 138.919h1.226v4.027a2.366 2.366 0 011.906-.937 2.053 2.053 0 011.112.309 1.877 1.877 0 01.73.857 4.21 4.21 0 01.24 1.622v3.53h-1.227v-3.832a1.691 1.691 0 00-.334-1.094 1.069 1.069 0 00-.879-.415 1.5 1.5 0 00-.761.208 3.508 3.508 0 00-.788.694v4.438h-1.225z" fill="#fff"/><path data-name="Path 15" d="M83.631 142.128v1.421l.068-.108q.89-1.434 1.778-1.434a2.192 2.192 0 011.448.7l-.647 1.077a1.817 1.817 0 00-1.185-.607 1.269 1.269 0 00-1.028.567 2.131 2.131 0 00-.434 1.339v3.24h-1.233v-6.195z" fill="#fff"/><path data-name="Path 16" d="M92.782 145.337h-4.356a2.024 2.024 0 00.6 1.414 1.965 1.965 0 001.418.525 3.688 3.688 0 002.236-.754v1.2a4.116 4.116 0 01-1.121.538 4.7 4.7 0 01-1.3.161 2.924 2.924 0 01-1.656-.423 3.085 3.085 0 01-1.021-1.143 3.487 3.487 0 01-.381-1.661 3.3 3.3 0 01.8-2.3 2.679 2.679 0 012.081-.884 2.453 2.453 0 011.967.862 3.444 3.444 0 01.734 2.31zm-4.331-.734h3.118a1.711 1.711 0 00-.439-1.132 1.408 1.408 0 00-1.05-.4 1.52 1.52 0 00-1.081.4 1.963 1.963 0 00-.547 1.132z" fill="#fff"/><path data-name="Path 17" d="M99.39 145.337h-4.357a2.024 2.024 0 00.6 1.414 1.965 1.965 0 001.418.525 3.685 3.685 0 002.236-.754v1.2a4.116 4.116 0 01-1.121.538 4.7 4.7 0 01-1.3.161 2.924 2.924 0 01-1.656-.423 3.085 3.085 0 01-1.014-1.142 3.487 3.487 0 01-.381-1.661 3.3 3.3 0 01.8-2.3 2.679 2.679 0 012.081-.884 2.451 2.451 0 011.967.862 3.444 3.444 0 01.734 2.31zm-4.331-.734h3.118a1.717 1.717 0 00-.437-1.132 1.413 1.413 0 00-1.051-.4 1.52 1.52 0 00-1.081.4 1.963 1.963 0 00-.549 1.132z" fill="#fff"/><path data-name="Path 18" d="M10.017 155.47h1.226v3.659a2.832 2.832 0 011.7-.579 2.4 2.4 0 011.925.89 3.425 3.425 0 01.748 2.283 3.2 3.2 0 01-.892 2.381 3.239 3.239 0 01-2.387.885 6.54 6.54 0 01-1.262-.128 4.218 4.218 0 01-1.055-.323zm1.226 4.829v3.353a4.45 4.45 0 001.287.189 1.7 1.7 0 001.33-.579 2.157 2.157 0 00.516-1.488 2.28 2.28 0 00-.481-1.5 1.558 1.558 0 00-1.256-.579 2.166 2.166 0 00-1.396.604z" fill="#658ec0"/><path data-name="Path 19" d="M20.857 155.47h1.226v9.408h-1.226z" fill="#658ec0"/><path data-name="Path 20" d="M31.662 164.879v-.794a2.845 2.845 0 01-.892.663 2.315 2.315 0 01-1 .239 2.088 2.088 0 01-1.08-.292 1.9 1.9 0 01-.748-.794 3.962 3.962 0 01-.254-1.668v-3.55h1.23v3.53a2.438 2.438 0 00.28 1.364 1.129 1.129 0 00.979.386 1.789 1.789 0 001.488-.855v-4.425h1.223v6.2z" fill="#658ec0"/><path data-name="Path 21" d="M43.754 161.888h-4.353a2.024 2.024 0 00.6 1.414 1.965 1.965 0 001.418.525 3.685 3.685 0 002.236-.754v1.2a4.117 4.117 0 01-1.121.538 4.7 4.7 0 01-1.3.161 2.924 2.924 0 01-1.656-.423 3.085 3.085 0 01-1.014-1.142 3.487 3.487 0 01-.381-1.661 3.3 3.3 0 01.8-2.3 2.679 2.679 0 012.081-.884 2.451 2.451 0 011.967.862 3.444 3.444 0 01.734 2.31zm-4.331-.734h3.118a1.71 1.71 0 00-.437-1.132 1.413 1.413 0 00-1.051-.4 1.52 1.52 0 00-1.081.4 1.971 1.971 0 00-.549 1.132z" fill="#658ec0"/><path data-name="Path 22" d="M48.863 168.037v-9.354h2.145a3.716 3.716 0 012.567.821 2.931 2.931 0 01.919 2.3 3.165 3.165 0 01-.865 2.29 2.926 2.926 0 01-2.2.9 3.846 3.846 0 01-1.31-.262v3.313zm2.119-8.209h-.866v3.812a2.57 2.57 0 001.182.288 1.818 1.818 0 001.408-.6 2.2 2.2 0 00.548-1.542 2.17 2.17 0 00-.258-1.072 1.585 1.585 0 00-.706-.677 3.193 3.193 0 00-1.308-.209z" fill="#658ec0"/><path data-name="Path 23" d="M61.014 158.679v1.421l.068-.108q.89-1.434 1.778-1.434a2.192 2.192 0 011.448.7l-.647 1.077a1.817 1.817 0 00-1.185-.607 1.269 1.269 0 00-1.028.567 2.131 2.131 0 00-.434 1.339v3.24h-1.232v-6.2z" fill="#658ec0"/><path data-name="Path 24" d="M69.662 156.076a.724.724 0 01.519.208.687.687 0 01.215.513.735.735 0 01-.734.727.68.68 0 01-.5-.219.7.7 0 010-1.011.683.683 0 01.5-.218zm-.607 2.607h1.226v6.2h-1.23z" fill="#658ec0"/><path data-name="Path 25" d="M77.136 158.679v.788a2.466 2.466 0 011.866-.909 2.043 2.043 0 011.077.3 1.934 1.934 0 01.757.821 3.914 3.914 0 01.259 1.654v3.546h-1.224v-3.53a2.4 2.4 0 00-.288-1.356 1.111 1.111 0 00-.971-.408 1.765 1.765 0 00-1.474.869v4.425h-1.254v-6.2z" fill="#658ec0"/><path data-name="Path 26" d="M85.797 159.666l2.3-2.263v1.28h1.96v1.1h-1.96v3.032q0 1.061.883 1.062a2.745 2.745 0 001.394-.437v1.145a3.114 3.114 0 01-1.543.4 2.041 2.041 0 01-1.4-.491 1.411 1.411 0 01-.29-.335 1.732 1.732 0 01-.192-.484 5.385 5.385 0 01-.077-1.141v-2.747h-1.075z" fill="#658ec0"/><path data-name="Path 27" d="M94.821 164.434v-1.32a5.53 5.53 0 001.061.588 2.446 2.446 0 00.912.226 1.132 1.132 0 00.661-.188.544.544 0 00.276-.451.615.615 0 00-.178-.45 4.172 4.172 0 00-.771-.514 5.414 5.414 0 01-1.553-1.128 1.621 1.621 0 01-.368-1.018 1.433 1.433 0 01.556-1.165 2.191 2.191 0 011.432-.451 3.945 3.945 0 011.865.512v1.212a3.729 3.729 0 00-1.785-.661.985.985 0 00-.575.153.464.464 0 00-.219.4.58.58 0 00.2.411 3.4 3.4 0 00.7.47l.437.25q1.55.875 1.55 1.939a1.543 1.543 0 01-.6 1.248 2.341 2.341 0 01-1.532.488 3.734 3.734 0 01-.983-.117 6.6 6.6 0 01-1.086-.434z" fill="#658ec0"/></g></svg>